<svg xmlns="http://www.w3.org/2000/svg" xmlns:xlink="http://www.w3.org/1999/xlink" width="474" zoomAndPan="magnify" viewBox="0 0 355.5 194.249992" height="259" preserveAspectRatio="xMidYMid meet" version="1.2"><defs/><g id="f445504f72"><g style="fill:#00bf63;fill-opacity:1;"><g transform="translate(73.525904, 137.762699)"><path style="stroke:none" d="M 52.109375 -85.234375 L 52.109375 -56.984375 L 32.875 -56.984375 C 31.738281 -56.984375 31.171875 -56.457031 31.171875 -55.40625 L 52.109375 -55.40625 L 52.109375 -27.03125 L 31.171875 -27.03125 L 31.171875 0 L 1.21875 0 L 1.21875 -54.0625 C 1.21875 -60.394531 2.578125 -65.875 5.296875 -70.5 C 8.015625 -75.125 11.804688 -78.734375 16.671875 -81.328125 C 21.546875 -83.929688 27.109375 -85.234375 33.359375 -85.234375 Z M 52.109375 -85.234375 "/></g></g><g style="fill:#00bf63;fill-opacity:1;"><g transform="translate(126.256308, 137.762699)"><path style="stroke:none" d="M 44.5625 -68.3125 L 44.5625 -39.703125 L 33 -39.703125 C 31.78125 -39.703125 31.171875 -39.09375 31.171875 -37.875 L 31.171875 0 L 1.21875 0 L 1.21875 -36.65625 C 1.21875 -43.0625 2.597656 -48.617188 5.359375 -53.328125 C 8.117188 -58.035156 11.953125 -61.707031 16.859375 -64.34375 C 21.773438 -66.988281 27.398438 -68.3125 33.734375 -68.3125 Z M 44.5625 -68.3125 "/></g></g><g style="fill:#fff9f9;fill-opacity:1;"><g transform="translate(163.996217, 108.132328)"><path style="stroke:none" d="M 26.507812 -54.566406 C 30.511719 -54.566406 34.261719 -53.808594 37.757812 -52.296875 C 41.210938 -50.804688 44.269531 -48.742188 46.929688 -46.117188 C 49.601562 -43.476562 51.6875 -40.40625 53.1875 -36.902344 C 54.699219 -33.382812 55.453125 -29.621094 55.453125 -25.621094 L 55.453125 3.324219 L 27.527344 3.324219 L 27.527344 -25.621094 C 27.527344 -25.90625 27.410156 -26.171875 27.175781 -26.414062 C 26.972656 -26.625 26.75 -26.730469 26.507812 -26.730469 C 26.207031 -26.730469 25.953125 -26.625 25.75 -26.414062 C 25.515625 -26.171875 25.398438 -25.90625 25.398438 -25.621094 C 25.398438 -25.335938 25.515625 -25.070312 25.75 -24.828125 C 25.953125 -24.617188 26.207031 -24.511719 26.507812 -24.511719 L 32.933594 -24.511719 L 32.933594 3.324219 L 26.507812 3.324219 C 22.507812 3.324219 18.746094 2.570312 15.222656 1.0625 C 11.722656 -0.441406 8.652344 -2.527344 6.011719 -5.199219 C 3.386719 -7.859375 1.324219 -10.917969 -0.171875 -14.371094 C -1.683594 -17.867188 -2.4375 -21.617188 -2.4375 -25.621094 C -2.4375 -29.621094 -1.683594 -33.382812 -0.175781 -36.902344 C 1.324219 -40.398438 3.390625 -43.464844 6.027344 -46.101562 C 8.664062 -48.738281 11.730469 -50.804688 15.222656 -52.300781 C 18.746094 -53.8125 22.507812 -54.566406 26.507812 -54.566406 Z M 26.507812 -47.917969 C 23.414062 -47.917969 20.527344 -47.339844 17.84375 -46.191406 C 15.132812 -45.027344 12.761719 -43.433594 10.730469 -41.398438 C 8.695312 -39.367188 7.097656 -36.996094 5.9375 -34.285156 C 4.785156 -31.601562 4.210938 -28.710938 4.210938 -25.621094 C 4.210938 -22.535156 4.785156 -19.664062 5.933594 -17.011719 C 7.097656 -14.320312 8.699219 -11.941406 10.742188 -9.871094 C 12.773438 -7.816406 15.140625 -6.210938 17.84375 -5.050781 C 20.527344 -3.898438 23.414062 -3.324219 26.507812 -3.324219 L 29.609375 -3.324219 L 29.609375 0 L 26.285156 0 L 26.285156 -21.1875 L 29.609375 -21.1875 L 29.609375 -17.863281 L 26.507812 -17.863281 C 24.324219 -17.863281 22.480469 -18.644531 20.96875 -20.207031 C 19.488281 -21.738281 18.75 -23.542969 18.75 -25.621094 C 18.75 -27.699219 19.488281 -29.503906 20.96875 -31.035156 C 22.480469 -32.597656 24.324219 -33.378906 26.507812 -33.378906 C 28.628906 -33.378906 30.445312 -32.597656 31.957031 -31.035156 C 33.4375 -29.503906 34.175781 -27.699219 34.175781 -25.621094 L 34.175781 0 L 30.851562 0 L 30.851562 -3.324219 L 52.128906 -3.324219 L 52.128906 0 L 48.804688 0 L 48.804688 -25.621094 C 48.804688 -28.710938 48.226562 -31.601562 47.078125 -34.285156 C 45.917969 -36.988281 44.3125 -39.355469 42.257812 -41.382812 C 40.1875 -43.425781 37.808594 -45.03125 35.117188 -46.195312 C 32.464844 -47.34375 29.59375 -47.917969 26.507812 -47.917969 Z M 26.507812 -47.917969 "/></g></g><g style="fill:#00bf63;fill-opacity:1;"><g transform="translate(163.996217, 108.132328)"><path style="stroke:none" d="M 26.515625 -51.25 C 30.054688 -51.25 33.363281 -50.582031 36.4375 -49.25 C 39.507812 -47.914062 42.226562 -46.082031 44.59375 -43.75 C 46.957031 -41.414062 48.800781 -38.695312 50.125 -35.59375 C 51.457031 -32.488281 52.125 -29.164062 52.125 -25.625 L 52.125 0 L 30.859375 0 L 30.859375 -25.625 C 30.859375 -26.800781 30.425781 -27.832031 29.5625 -28.71875 C 28.707031 -29.601562 27.691406 -30.046875 26.515625 -30.046875 C 25.265625 -30.046875 24.210938 -29.601562 23.359375 -28.71875 C 22.503906 -27.832031 22.078125 -26.800781 22.078125 -25.625 C 22.078125 -24.4375 22.503906 -23.398438 23.359375 -22.515625 C 24.210938 -21.628906 25.265625 -21.1875 26.515625 -21.1875 L 29.609375 -21.1875 L 29.609375 0 L 26.515625 0 C 22.960938 0 19.632812 -0.660156 16.53125 -1.984375 C 13.425781 -3.316406 10.707031 -5.164062 8.375 -7.53125 C 6.039062 -9.894531 4.207031 -12.613281 2.875 -15.6875 C 1.550781 -18.757812 0.890625 -22.070312 0.890625 -25.625 C 0.890625 -29.164062 1.550781 -32.488281 2.875 -35.59375 C 4.207031 -38.695312 6.039062 -41.414062 8.375 -43.75 C 10.707031 -46.082031 13.425781 -47.914062 16.53125 -49.25 C 19.632812 -50.582031 22.960938 -51.25 26.515625 -51.25 Z M 26.515625 -51.25 "/></g></g><g style="fill:#fff9f9;fill-opacity:1;"><g transform="translate(210.049018, 127.293954)"><path style="stroke:none" d="M -2.527344 12.234375 L -2.527344 -12.011719 L 9.21875 -12.011719 C 8.746094 -12.011719 8.292969 -11.800781 7.867188 -11.371094 C 7.4375 -10.945312 7.226562 -10.492188 7.226562 -10.019531 L 7.226562 -53.058594 L 35.683594 -53.058594 L 35.683594 -10.816406 C 35.683594 -5.609375 34.527344 -1.019531 32.21875 2.957031 C 29.894531 6.953125 26.6875 10.058594 22.59375 12.277344 C 18.554688 14.464844 13.917969 15.558594 8.6875 15.558594 L -2.527344 15.558594 Z M 4.121094 12.234375 L 0.796875 12.234375 L 0.796875 8.910156 L 8.6875 8.910156 C 12.796875 8.910156 16.375 8.082031 19.425781 6.429688 C 22.425781 4.804688 24.773438 2.535156 26.46875 -0.386719 C 28.179688 -3.328125 29.035156 -6.804688 29.035156 -10.816406 L 29.035156 -49.734375 L 32.359375 -49.734375 L 32.359375 -46.410156 L 10.550781 -46.410156 L 10.550781 -49.734375 L 13.875 -49.734375 L 13.875 -10.019531 C 13.875 -8.65625 13.4375 -7.539062 12.566406 -6.667969 C 11.699219 -5.796875 10.582031 -5.363281 9.21875 -5.363281 L 0.796875 -5.363281 L 0.796875 -8.6875 L 4.121094 -8.6875 Z M 4.121094 12.234375 "/></g></g><g style="fill:#00bf63;fill-opacity:1;"><g transform="translate(210.049018, 127.293954)"><path style="stroke:none" d="M 0.796875 12.234375 L 0.796875 -8.6875 L 9.21875 -8.6875 C 10.101562 -8.6875 10.546875 -9.128906 10.546875 -10.015625 L 10.546875 -49.734375 L 32.359375 -49.734375 L 32.359375 -10.8125 C 32.359375 -6.207031 31.351562 -2.175781 29.34375 1.28125 C 27.332031 4.738281 24.550781 7.425781 21 9.34375 C 17.457031 11.269531 13.351562 12.234375 8.6875 12.234375 Z M 0.796875 12.234375 "/></g></g><g style="fill:#00bf63;fill-opacity:1;"><g transform="translate(236.136506, 108.132328)"><path style="stroke:none" d="M 53.28125 -62.0625 L 53.28125 -24.828125 C 53.28125 -21.222656 52.597656 -17.820312 51.234375 -14.625 C 49.878906 -11.4375 47.988281 -8.628906 45.5625 -6.203125 C 43.144531 -3.785156 40.351562 -1.894531 37.1875 -0.53125 C 34.03125 0.820312 30.617188 1.5 26.953125 1.5 C 23.347656 1.5 19.945312 0.820312 16.75 -0.53125 C 13.5625 -1.894531 10.769531 -3.785156 8.375 -6.203125 C 5.976562 -8.628906 4.097656 -11.4375 2.734375 -14.625 C 1.378906 -17.820312 0.703125 -21.222656 0.703125 -24.828125 C 0.703125 -28.492188 1.378906 -31.90625 2.734375 -35.0625 C 4.097656 -38.226562 5.976562 -41.019531 8.375 -43.4375 C 10.769531 -45.863281 13.5625 -47.753906 16.75 -49.109375 C 19.945312 -50.472656 23.347656 -51.15625 26.953125 -51.15625 L 30.234375 -51.15625 L 30.234375 -29.34375 L 26.953125 -29.34375 C 25.710938 -29.34375 24.660156 -28.898438 23.796875 -28.015625 C 22.941406 -27.128906 22.515625 -26.066406 22.515625 -24.828125 C 22.515625 -23.585938 22.941406 -22.519531 23.796875 -21.625 C 24.660156 -20.738281 25.710938 -20.296875 26.953125 -20.296875 C 28.253906 -20.296875 29.332031 -20.738281 30.1875 -21.625 C 31.039062 -22.519531 31.46875 -23.585938 31.46875 -24.828125 L 31.46875 -62.0625 Z M 53.28125 -62.0625 "/></g></g><g style="fill:#fff9f9;fill-opacity:1;"><g transform="translate(270.460982, 146.463353)"><path style="stroke:none" d="M 27.039062 4.742188 C 22.980469 4.742188 19.148438 3.976562 15.542969 2.4375 C 11.953125 0.910156 8.796875 -1.214844 6.070312 -3.945312 C 3.34375 -6.671875 1.21875 -9.828125 -0.308594 -13.414062 C -1.847656 -17.019531 -2.617188 -20.855469 -2.617188 -24.910156 C -2.617188 -29.03125 -1.84375 -32.882812 -0.304688 -36.464844 C 1.222656 -40.015625 3.347656 -43.15625 6.070312 -45.878906 C 8.796875 -48.605469 11.953125 -50.734375 15.542969 -52.261719 C 19.148438 -53.796875 22.980469 -54.566406 27.039062 -54.566406 C 31.160156 -54.566406 35.011719 -53.796875 38.589844 -52.257812 C 42.144531 -50.730469 45.28125 -48.601562 48.007812 -45.878906 C 50.730469 -43.15625 52.855469 -40.015625 54.382812 -36.464844 C 55.925781 -32.882812 56.695312 -29.03125 56.695312 -24.910156 C 56.695312 -20.855469 55.925781 -17.019531 54.390625 -13.414062 C 52.859375 -9.828125 50.734375 -6.671875 48.007812 -3.945312 C 45.28125 -1.21875 42.144531 0.90625 38.589844 2.433594 C 35.011719 3.972656 31.160156 4.742188 27.039062 4.742188 Z M 27.039062 -1.90625 C 30.246094 -1.90625 33.222656 -2.496094 35.964844 -3.675781 C 38.738281 -4.867188 41.183594 -6.523438 43.304688 -8.644531 C 45.425781 -10.765625 47.078125 -13.222656 48.269531 -16.019531 C 49.453125 -18.792969 50.042969 -21.757812 50.042969 -24.910156 C 50.042969 -28.121094 49.453125 -31.09375 48.277344 -33.835938 C 47.085938 -36.609375 45.425781 -39.054688 43.304688 -41.175781 C 41.183594 -43.300781 38.738281 -44.957031 35.964844 -46.148438 C 33.222656 -47.328125 30.246094 -47.917969 27.039062 -47.917969 C 23.886719 -47.917969 20.921875 -47.324219 18.148438 -46.144531 C 15.351562 -44.953125 12.890625 -43.296875 10.773438 -41.175781 C 8.652344 -39.054688 6.992188 -36.609375 5.800781 -33.835938 C 4.625 -31.09375 4.035156 -28.121094 4.035156 -24.910156 C 4.035156 -21.757812 4.625 -18.792969 5.808594 -16.019531 C 7 -13.222656 8.652344 -10.765625 10.773438 -8.644531 C 12.890625 -6.527344 15.351562 -4.871094 18.148438 -3.679688 C 20.921875 -2.496094 23.886719 -1.90625 27.039062 -1.90625 Z M 27.039062 -26.109375 C 26.714844 -26.109375 26.4375 -25.988281 26.199219 -25.753906 C 25.960938 -25.515625 25.84375 -25.234375 25.84375 -24.910156 C 25.84375 -24.589844 25.960938 -24.308594 26.199219 -24.070312 C 26.4375 -23.832031 26.714844 -23.714844 27.039062 -23.714844 C 27.363281 -23.714844 27.640625 -23.832031 27.878906 -24.070312 C 28.117188 -24.308594 28.234375 -24.589844 28.234375 -24.910156 C 28.234375 -25.234375 28.117188 -25.515625 27.878906 -25.753906 C 27.640625 -25.988281 27.363281 -26.109375 27.039062 -26.109375 Z M 27.039062 -32.757812 C 29.199219 -32.757812 31.046875 -31.988281 32.582031 -30.453125 C 34.117188 -28.917969 34.886719 -27.070312 34.886719 -24.910156 C 34.886719 -22.753906 34.117188 -20.90625 32.582031 -19.367188 C 31.046875 -17.832031 29.199219 -17.066406 27.039062 -17.066406 C 24.878906 -17.066406 23.03125 -17.832031 21.496094 -19.367188 C 19.960938 -20.90625 19.191406 -22.753906 19.191406 -24.910156 C 19.191406 -27.070312 19.960938 -28.917969 21.496094 -30.453125 C 23.03125 -31.988281 24.878906 -32.757812 27.039062 -32.757812 Z M 27.039062 -32.757812 "/></g></g><g style="fill:#00bf63;fill-opacity:1;"><g transform="translate(270.460982, 146.463353)"><path style="stroke:none" d="M 27.046875 1.421875 C 23.429688 1.421875 20.03125 0.742188 16.84375 -0.609375 C 13.65625 -1.972656 10.847656 -3.863281 8.421875 -6.28125 C 5.992188 -8.707031 4.097656 -11.515625 2.734375 -14.703125 C 1.378906 -17.898438 0.703125 -21.300781 0.703125 -24.90625 C 0.703125 -28.570312 1.378906 -31.984375 2.734375 -35.140625 C 4.097656 -38.304688 5.992188 -41.101562 8.421875 -43.53125 C 10.847656 -45.957031 13.65625 -47.847656 16.84375 -49.203125 C 20.03125 -50.566406 23.429688 -51.25 27.046875 -51.25 C 30.703125 -51.25 34.109375 -50.566406 37.265625 -49.203125 C 40.429688 -47.847656 43.226562 -45.957031 45.65625 -43.53125 C 48.082031 -41.101562 49.972656 -38.304688 51.328125 -35.140625 C 52.691406 -31.984375 53.375 -28.570312 53.375 -24.90625 C 53.375 -21.300781 52.691406 -17.898438 51.328125 -14.703125 C 49.972656 -11.515625 48.082031 -8.707031 45.65625 -6.28125 C 43.226562 -3.863281 40.429688 -1.972656 37.265625 -0.609375 C 34.109375 0.742188 30.703125 1.421875 27.046875 1.421875 Z M 27.046875 -29.4375 C 25.796875 -29.4375 24.726562 -28.992188 23.84375 -28.109375 C 22.957031 -27.222656 22.515625 -26.15625 22.515625 -24.90625 C 22.515625 -23.664062 22.957031 -22.601562 23.84375 -21.71875 C 24.726562 -20.832031 25.796875 -20.390625 27.046875 -20.390625 C 28.285156 -20.390625 29.347656 -20.832031 30.234375 -21.71875 C 31.117188 -22.601562 31.5625 -23.664062 31.5625 -24.90625 C 31.5625 -26.15625 31.117188 -27.222656 30.234375 -28.109375 C 29.347656 -28.992188 28.285156 -29.4375 27.046875 -29.4375 Z M 27.046875 -29.4375 "/></g></g><g style="fill:#00bf63;fill-opacity:1;"><g transform="translate(163.652444, 65.909227)"><path style="stroke:none" d="M 3.765625 -4.375 C 3.398438 -3.925781 2.984375 -3.515625 2.515625 -3.140625 C 2.046875 -2.773438 1.53125 -2.492188 0.96875 -2.296875 C 0.414062 -2.097656 -0.164062 -2.03125 -0.78125 -2.09375 C -1.394531 -2.164062 -2.023438 -2.410156 -2.671875 -2.828125 L -1.234375 -4.640625 C -0.710938 -4.390625 -0.234375 -4.285156 0.203125 -4.328125 C 0.640625 -4.367188 1.023438 -4.503906 1.359375 -4.734375 C 1.703125 -4.960938 2.003906 -5.242188 2.265625 -5.578125 C 2.648438 -6.054688 2.867188 -6.535156 2.921875 -7.015625 C 2.972656 -7.503906 2.773438 -7.929688 2.328125 -8.296875 C 2.003906 -8.546875 1.671875 -8.640625 1.328125 -8.578125 C 0.984375 -8.515625 0.628906 -8.351562 0.265625 -8.09375 C -0.0976562 -7.832031 -0.484375 -7.53125 -0.890625 -7.1875 C -1.273438 -6.882812 -1.671875 -6.582031 -2.078125 -6.28125 C -2.492188 -5.988281 -2.921875 -5.753906 -3.359375 -5.578125 C -3.804688 -5.410156 -4.257812 -5.359375 -4.71875 -5.421875 C -5.1875 -5.484375 -5.660156 -5.703125 -6.140625 -6.078125 C -6.742188 -6.554688 -7.128906 -7.097656 -7.296875 -7.703125 C -7.472656 -8.304688 -7.46875 -8.9375 -7.28125 -9.59375 C -7.09375 -10.257812 -6.753906 -10.90625 -6.265625 -11.53125 C -5.785156 -12.132812 -5.226562 -12.613281 -4.59375 -12.96875 C -3.957031 -13.332031 -3.28125 -13.523438 -2.5625 -13.546875 C -1.84375 -13.566406 -1.109375 -13.359375 -0.359375 -12.921875 L -1.78125 -11.140625 C -2.375 -11.421875 -2.929688 -11.472656 -3.453125 -11.296875 C -3.972656 -11.117188 -4.425781 -10.785156 -4.8125 -10.296875 C -5.15625 -9.867188 -5.34375 -9.4375 -5.375 -9 C -5.414062 -8.570312 -5.257812 -8.21875 -4.90625 -7.9375 C -4.613281 -7.707031 -4.3125 -7.628906 -4 -7.703125 C -3.6875 -7.773438 -3.351562 -7.929688 -3 -8.171875 C -2.65625 -8.421875 -2.285156 -8.703125 -1.890625 -9.015625 C -1.492188 -9.335938 -1.082031 -9.644531 -0.65625 -9.9375 C -0.226562 -10.238281 0.21875 -10.476562 0.6875 -10.65625 C 1.15625 -10.84375 1.632812 -10.90625 2.125 -10.84375 C 2.613281 -10.78125 3.125 -10.539062 3.65625 -10.125 C 4.53125 -9.425781 4.984375 -8.566406 5.015625 -7.546875 C 5.046875 -6.523438 4.628906 -5.46875 3.765625 -4.375 Z M 3.765625 -4.375 "/></g></g><g style="fill:#00bf63;fill-opacity:1;"><g transform="translate(171.943578, 56.261411)"><path style="stroke:none" d="M 8.125 -4.46875 L 0.375 -0.203125 L -0.375 -1.5625 L 0.890625 -11.75 L -4.078125 -9.015625 L -5.046875 -10.765625 L 2.390625 -14.84375 L 3.171875 -13.4375 L 1.953125 -3.359375 L 7.15625 -6.21875 Z M 8.125 -4.46875 "/></g></g><g style="fill:#00bf63;fill-opacity:1;"><g transform="translate(182.356356, 50.89935)"><path style="stroke:none" d="M 3.28125 -0.375 L 1.0625 -0.125 L -0.265625 -11.90625 L 1.953125 -12.15625 L 2.546875 -6.921875 L 6.109375 -12.625 L 8.828125 -12.921875 L 4.765625 -6.71875 L 10.3125 -1.15625 L 7.546875 -0.84375 L 2.671875 -5.84375 Z M 3.28125 -0.375 "/></g></g><g style="fill:#00bf63;fill-opacity:1;"><g transform="translate(194.55146, 49.672537)"><path style="stroke:none" d="M 5.96875 2.203125 C 5.039062 1.898438 4.285156 1.476562 3.703125 0.9375 C 3.117188 0.394531 2.691406 -0.21875 2.421875 -0.90625 C 2.160156 -1.601562 2.035156 -2.335938 2.046875 -3.109375 C 2.054688 -3.890625 2.191406 -4.671875 2.453125 -5.453125 C 2.710938 -6.234375 3.066406 -6.9375 3.515625 -7.5625 C 3.972656 -8.1875 4.515625 -8.691406 5.140625 -9.078125 C 5.765625 -9.472656 6.472656 -9.710938 7.265625 -9.796875 C 8.054688 -9.878906 8.914062 -9.769531 9.84375 -9.46875 C 10.769531 -9.15625 11.523438 -8.726562 12.109375 -8.1875 C 12.703125 -7.644531 13.128906 -7.03125 13.390625 -6.34375 C 13.660156 -5.65625 13.789062 -4.921875 13.78125 -4.140625 C 13.769531 -3.367188 13.632812 -2.59375 13.375 -1.8125 C 13.113281 -1.03125 12.753906 -0.328125 12.296875 0.296875 C 11.847656 0.921875 11.3125 1.429688 10.6875 1.828125 C 10.0625 2.222656 9.347656 2.460938 8.546875 2.546875 C 7.753906 2.628906 6.894531 2.515625 5.96875 2.203125 Z M 6.59375 0.3125 C 7.300781 0.550781 7.945312 0.582031 8.53125 0.40625 C 9.125 0.226562 9.644531 -0.109375 10.09375 -0.609375 C 10.550781 -1.117188 10.910156 -1.765625 11.171875 -2.546875 C 11.429688 -3.328125 11.53125 -4.050781 11.46875 -4.71875 C 11.40625 -5.394531 11.1875 -5.972656 10.8125 -6.453125 C 10.445312 -6.941406 9.910156 -7.304688 9.203125 -7.546875 C 8.523438 -7.765625 7.890625 -7.789062 7.296875 -7.625 C 6.703125 -7.457031 6.175781 -7.125 5.71875 -6.625 C 5.269531 -6.132812 4.914062 -5.5 4.65625 -4.71875 C 4.394531 -3.9375 4.296875 -3.203125 4.359375 -2.515625 C 4.421875 -1.835938 4.640625 -1.25 5.015625 -0.75 C 5.390625 -0.257812 5.914062 0.09375 6.59375 0.3125 Z M 6.59375 0.3125 "/></g></g><g style="fill:#00bf63;fill-opacity:1;"><g transform="translate(208.093105, 54.96566)"><path style="stroke:none" d="M 6.640625 6 L 1.25 1.125 L 4.40625 -2.359375 L 3.171875 -2.71875 L 4.359375 -4.03125 L 5.609375 -3.703125 L 9.203125 -7.671875 L 10.875 -6.15625 L 8.0625 -3.046875 L 10.828125 -2.328125 L 9.65625 -1.015625 L 6.875 -1.734375 L 4.265625 1.15625 L 7.984375 4.515625 Z M 6.640625 6 "/></g></g><g style="fill:#00bf63;fill-opacity:1;"><g transform="translate(216.164686, 62.517092)"><path style="stroke:none" d="M 1.0625 2.21875 L 0.046875 0.09375 L 12.546875 -1.25 L 13.609375 0.96875 L 4.71875 9.84375 L 3.703125 7.734375 L 5.5625 5.953125 L 3.609375 1.890625 Z M 10.890625 0.890625 L 5.65625 1.609375 L 7.0625 4.546875 Z M 10.890625 0.890625 "/></g></g></g></svg>